%TF.GenerationSoftware,KiCad,Pcbnew,(5.1.6-0-10_14)*%
%TF.CreationDate,2020-10-31T17:57:06+01:00*%
%TF.ProjectId,FM_Receiver,464d5f52-6563-4656-9976-65722e6b6963,rev?*%
%TF.SameCoordinates,Original*%
%TF.FileFunction,Soldermask,Top*%
%TF.FilePolarity,Negative*%
%FSLAX46Y46*%
G04 Gerber Fmt 4.6, Leading zero omitted, Abs format (unit mm)*
G04 Created by KiCad (PCBNEW (5.1.6-0-10_14)) date 2020-10-31 17:57:06*
%MOMM*%
%LPD*%
G01*
G04 APERTURE LIST*
%ADD10O,2.300000X2.300000*%
%ADD11R,2.300000X2.300000*%
%ADD12O,4.100000X2.300000*%
%ADD13O,2.300000X4.100000*%
%ADD14R,2.300000X4.100000*%
%ADD15C,2.350000*%
%ADD16C,2.150000*%
%ADD17R,1.900000X1.900000*%
%ADD18C,1.900000*%
%ADD19C,1.700000*%
%ADD20O,1.700000X1.700000*%
%ADD21C,3.600000*%
%ADD22C,1.600000*%
%ADD23R,1.150000X1.600000*%
%ADD24O,1.150000X1.600000*%
%ADD25R,1.100000X5.100000*%
%ADD26R,9.100000X1.100000*%
%ADD27R,5.100000X1.100000*%
%ADD28C,2.100000*%
%ADD29R,2.100000X2.100000*%
%ADD30C,1.200000*%
%ADD31C,2.300000*%
%ADD32R,3.148000X3.148000*%
%ADD33R,1.100000X1.600000*%
%ADD34O,1.100000X1.600000*%
%ADD35C,1.540000*%
%ADD36O,2.100000X1.300000*%
%ADD37O,1.300000X2.100000*%
%ADD38C,2.500000*%
%ADD39O,2.500000X2.500000*%
%ADD40R,1.600000X1.150000*%
%ADD41O,1.600000X1.150000*%
%ADD42C,1.800000*%
%ADD43O,1.600000X1.600000*%
%ADD44R,1.600000X1.600000*%
%ADD45C,2.700000*%
%ADD46R,1.700000X1.700000*%
G04 APERTURE END LIST*
D10*
%TO.C,D101*%
X117078000Y-76778000D03*
D11*
X117078000Y-84398000D03*
%TD*%
D10*
%TO.C,D102*%
X122666000Y-76778000D03*
D11*
X122666000Y-84398000D03*
%TD*%
D12*
%TO.C,J107*%
X152158000Y-66528000D03*
D13*
X157358000Y-74528000D03*
X154658000Y-73328000D03*
D12*
X148058000Y-77728000D03*
D14*
X147558000Y-70428000D03*
%TD*%
D15*
%TO.C,J110*%
X168529000Y-77089000D03*
X168529000Y-72009000D03*
X173609000Y-72009000D03*
X173609000Y-77089000D03*
D16*
X171069000Y-74549000D03*
%TD*%
D17*
%TO.C,D103*%
X150548199Y-93756199D03*
D18*
X148008199Y-93756199D03*
%TD*%
%TO.C,D104*%
X148040600Y-87877800D03*
D17*
X150580600Y-87877800D03*
%TD*%
D19*
%TO.C,R103*%
X153933400Y-86074400D03*
D20*
X153933400Y-96234400D03*
%TD*%
%TO.C,R104*%
X157819600Y-96234400D03*
D19*
X157819600Y-86074400D03*
%TD*%
%TO.C,C109*%
X228076000Y-97696800D03*
X228076000Y-100196800D03*
%TD*%
%TO.C,C106*%
X230311200Y-74227200D03*
X230311200Y-76727200D03*
%TD*%
%TO.C,C105*%
X105648000Y-80548000D03*
X105648000Y-78048000D03*
%TD*%
%TO.C,C103*%
X115006000Y-123514000D03*
X112506000Y-123514000D03*
%TD*%
%TO.C,C102*%
X155178000Y-122244000D03*
X157678000Y-122244000D03*
%TD*%
D21*
%TO.C,REF\u002A\u002A*%
X39862000Y-160090000D03*
%TD*%
%TO.C,REF\u002A\u002A*%
X230616000Y-160090000D03*
%TD*%
%TO.C,REF\u002A\u002A*%
X230616000Y-68650000D03*
%TD*%
%TO.C,REF\u002A\u002A*%
X39862000Y-68650000D03*
%TD*%
D22*
%TO.C,TP102*%
X144041200Y-88740800D03*
%TD*%
%TO.C,TP101*%
X144041200Y-92740800D03*
%TD*%
D23*
%TO.C,Q102*%
X134860000Y-71090000D03*
D24*
X137400000Y-71090000D03*
X136130000Y-71090000D03*
%TD*%
D25*
%TO.C,Q201*%
X77120000Y-87675000D03*
D26*
X84045000Y-82750000D03*
D27*
X72195000Y-82750000D03*
%TD*%
D19*
%TO.C,R203*%
X82260000Y-72440000D03*
D20*
X72100000Y-72440000D03*
%TD*%
D19*
%TO.C,C201*%
X68680000Y-94810000D03*
X66180000Y-94810000D03*
%TD*%
%TO.C,C202*%
X69310000Y-75890000D03*
X66810000Y-75890000D03*
%TD*%
%TO.C,C204*%
X86800000Y-86460000D03*
X86800000Y-88960000D03*
%TD*%
%TO.C,R201*%
X72260000Y-94810000D03*
D20*
X82420000Y-94810000D03*
%TD*%
D19*
%TO.C,R102*%
X128000000Y-70200000D03*
D20*
X128000000Y-80360000D03*
%TD*%
D19*
%TO.C,C112*%
X129900000Y-83200000D03*
X127400000Y-83200000D03*
%TD*%
D28*
%TO.C,C111*%
X133600000Y-79200000D03*
D29*
X138600000Y-79200000D03*
%TD*%
D23*
%TO.C,Q101*%
X137400000Y-98200000D03*
D24*
X134860000Y-98200000D03*
X136130000Y-98200000D03*
%TD*%
D19*
%TO.C,C110*%
X127300000Y-86200000D03*
X129800000Y-86200000D03*
%TD*%
D11*
%TO.C,J101*%
X115933000Y-68877000D03*
D30*
X115933000Y-71417000D03*
D31*
X118473000Y-68877000D03*
D30*
X118473000Y-71417000D03*
D31*
X121013000Y-68877000D03*
D30*
X121013000Y-71417000D03*
%TD*%
D32*
%TO.C,J103*%
X46880000Y-121040000D03*
%TD*%
D20*
%TO.C,R101*%
X128000000Y-99160000D03*
D19*
X128000000Y-89000000D03*
%TD*%
D28*
%TO.C,C107*%
X138800000Y-90000000D03*
D29*
X133800000Y-90000000D03*
%TD*%
D32*
%TO.C,J102*%
X46750000Y-74470000D03*
%TD*%
%TO.C,J105*%
X105560000Y-120880000D03*
%TD*%
%TO.C,J104*%
X105630000Y-74630000D03*
%TD*%
D15*
%TO.C,J109*%
X214460000Y-134040000D03*
X214460000Y-128960000D03*
X219540000Y-128960000D03*
X219540000Y-134040000D03*
D16*
X217000000Y-131500000D03*
%TD*%
D19*
%TO.C,C403*%
X216000000Y-140950000D03*
X216000000Y-138450000D03*
%TD*%
D33*
%TO.C,Q401*%
X227250000Y-136350000D03*
D34*
X229790000Y-136350000D03*
X228520000Y-136350000D03*
%TD*%
D20*
%TO.C,R403*%
X223550000Y-155930600D03*
D19*
X223550000Y-145770600D03*
%TD*%
D20*
%TO.C,R402*%
X219000000Y-145770600D03*
D19*
X219000000Y-155930600D03*
%TD*%
%TO.C,C108*%
X198922000Y-81153000D03*
X201422000Y-81153000D03*
%TD*%
%TO.C,C104*%
X199644000Y-153583000D03*
X199644000Y-156083000D03*
%TD*%
D28*
%TO.C,C101*%
X194390000Y-73279000D03*
D29*
X199390000Y-73279000D03*
%TD*%
D20*
%TO.C,L501*%
X227009200Y-121666000D03*
D19*
X214309200Y-121666000D03*
%TD*%
D20*
%TO.C,L502*%
X227009200Y-115122400D03*
D19*
X214309200Y-115122400D03*
%TD*%
D15*
%TO.C,J108*%
X110372400Y-115335200D03*
X110372400Y-110255200D03*
X115452400Y-110255200D03*
X115452400Y-115335200D03*
D16*
X112912400Y-112795200D03*
%TD*%
D35*
%TO.C,RV201*%
X100712000Y-120150000D03*
X100712000Y-117610000D03*
X100712000Y-115070000D03*
%TD*%
D36*
%TO.C,T202*%
X85065600Y-117381400D03*
X93498400Y-117381400D03*
X93498400Y-112504600D03*
X85065600Y-112504600D03*
X89282000Y-110043000D03*
X89282000Y-119843000D03*
%TD*%
D19*
%TO.C,R202*%
X72160000Y-75890000D03*
D20*
X82320000Y-75890000D03*
%TD*%
D19*
%TO.C,C317*%
X118529100Y-130606800D03*
X118529100Y-128106800D03*
%TD*%
D20*
%TO.C,R325*%
X123024900Y-128550000D03*
D19*
X133184900Y-128550000D03*
%TD*%
D20*
%TO.C,R327*%
X133210300Y-133502400D03*
D19*
X123050300Y-133502400D03*
%TD*%
D37*
%TO.C,T201*%
X59818000Y-118549800D03*
X60554600Y-112885600D03*
X56262000Y-110396400D03*
X52706000Y-118549800D03*
X51969400Y-112885600D03*
%TD*%
D36*
%TO.C,T301*%
X131648200Y-121335800D03*
X137083800Y-121335800D03*
X131648200Y-115900200D03*
X137083800Y-115900200D03*
%TD*%
D16*
%TO.C,J106*%
X41538400Y-94913600D03*
D15*
X38998400Y-92373600D03*
X38998400Y-97453600D03*
X44078400Y-97453600D03*
X44078400Y-92373600D03*
%TD*%
D28*
%TO.C,C510*%
X171076000Y-88138000D03*
X163576000Y-88138000D03*
%TD*%
D36*
%TO.C,L202*%
X95600000Y-92350000D03*
X95600000Y-84850000D03*
X95600000Y-77350000D03*
%TD*%
D19*
%TO.C,C203*%
X89696800Y-94862800D03*
X87196800Y-94862800D03*
%TD*%
%TO.C,C205*%
X87246000Y-100043000D03*
X89746000Y-100043000D03*
%TD*%
D38*
%TO.C,L201*%
X59090000Y-94880000D03*
D39*
X59090000Y-74560000D03*
%TD*%
D19*
%TO.C,C301*%
X39751000Y-139458700D03*
X39751000Y-141958700D03*
%TD*%
%TO.C,C303*%
X44272200Y-139486000D03*
X44272200Y-141986000D03*
%TD*%
D23*
%TO.C,Q301*%
X47790100Y-141147800D03*
D24*
X50330100Y-141147800D03*
X49060100Y-141147800D03*
%TD*%
D20*
%TO.C,R301*%
X49885600Y-133502400D03*
D19*
X39725600Y-133502400D03*
%TD*%
D20*
%TO.C,R304*%
X49834800Y-128409700D03*
D19*
X39674800Y-128409700D03*
%TD*%
%TO.C,C302*%
X39674800Y-148410300D03*
X39674800Y-145910300D03*
%TD*%
%TO.C,C304*%
X53875300Y-144970500D03*
X56375300Y-144970500D03*
%TD*%
%TO.C,C305*%
X53835300Y-140652500D03*
X56335300Y-140652500D03*
%TD*%
%TO.C,C306*%
X69430900Y-153430600D03*
X69430900Y-155930600D03*
%TD*%
%TO.C,C307*%
X69430900Y-148270600D03*
X69430900Y-145770600D03*
%TD*%
%TO.C,C308*%
X73329800Y-128106800D03*
X73329800Y-130606800D03*
%TD*%
%TO.C,C309*%
X77254100Y-130606800D03*
X77254100Y-128106800D03*
%TD*%
D40*
%TO.C,Q302*%
X60655200Y-140423900D03*
D41*
X60655200Y-137883900D03*
X60655200Y-139153900D03*
%TD*%
D40*
%TO.C,Q303*%
X67144900Y-140423900D03*
D41*
X67144900Y-137883900D03*
X67144900Y-139153900D03*
%TD*%
D20*
%TO.C,R302*%
X49822100Y-155930600D03*
D19*
X49822100Y-145770600D03*
%TD*%
D20*
%TO.C,R303*%
X44996100Y-145770600D03*
D19*
X44996100Y-155930600D03*
%TD*%
D20*
%TO.C,R305*%
X54254400Y-138176000D03*
D19*
X54254400Y-128016000D03*
%TD*%
D20*
%TO.C,R306*%
X60032900Y-145770600D03*
D19*
X60032900Y-155930600D03*
%TD*%
D20*
%TO.C,R307*%
X58762900Y-128550000D03*
D19*
X68922900Y-128550000D03*
%TD*%
D20*
%TO.C,R308*%
X64858900Y-155930600D03*
D19*
X64858900Y-145770600D03*
%TD*%
D20*
%TO.C,R309*%
X68922900Y-133502400D03*
D19*
X58762900Y-133502400D03*
%TD*%
D20*
%TO.C,R310*%
X74510900Y-155930600D03*
D19*
X74510900Y-145770600D03*
%TD*%
D42*
%TO.C,Y301*%
X55016400Y-155063200D03*
X55016400Y-152563200D03*
X55016400Y-150063200D03*
%TD*%
%TO.C,Y302*%
X72910700Y-141588500D03*
X72910700Y-139088500D03*
X72910700Y-136588500D03*
%TD*%
D19*
%TO.C,C501*%
X207857600Y-121666000D03*
X210357600Y-121666000D03*
%TD*%
%TO.C,C504*%
X207939000Y-100076000D03*
X210439000Y-100076000D03*
%TD*%
%TO.C,C502*%
X207857600Y-117094000D03*
X210357600Y-117094000D03*
%TD*%
%TO.C,C505*%
X207939000Y-82296000D03*
X210439000Y-82296000D03*
%TD*%
%TO.C,C506*%
X199985000Y-90551000D03*
X197485000Y-90551000D03*
%TD*%
%TO.C,C507*%
X199985000Y-102743000D03*
X197485000Y-102743000D03*
%TD*%
%TO.C,C508*%
X199985000Y-114935000D03*
X197485000Y-114935000D03*
%TD*%
D28*
%TO.C,C509*%
X171076000Y-119126000D03*
X163576000Y-119126000D03*
%TD*%
D43*
%TO.C,D501*%
X214523200Y-79292856D03*
D44*
X222143200Y-79292856D03*
%TD*%
D45*
%TO.C,L504*%
X187913000Y-90551000D03*
X192913000Y-90551000D03*
%TD*%
%TO.C,L505*%
X187913000Y-102743000D03*
X192913000Y-102743000D03*
%TD*%
%TO.C,L506*%
X187913000Y-114935000D03*
X192913000Y-114935000D03*
%TD*%
D23*
%TO.C,Q501*%
X210439000Y-105918000D03*
D24*
X207899000Y-105918000D03*
X209169000Y-105918000D03*
%TD*%
D23*
%TO.C,Q502*%
X207899000Y-95504000D03*
D24*
X210439000Y-95504000D03*
X209169000Y-95504000D03*
%TD*%
D23*
%TO.C,Q503*%
X210439000Y-87884000D03*
D24*
X207899000Y-87884000D03*
X209169000Y-87884000D03*
%TD*%
D23*
%TO.C,Q504*%
X207899000Y-77216000D03*
D24*
X210439000Y-77216000D03*
X209169000Y-77216000D03*
%TD*%
D23*
%TO.C,Q505*%
X210439000Y-70358000D03*
D24*
X207899000Y-70358000D03*
X209169000Y-70358000D03*
%TD*%
D23*
%TO.C,Q506*%
X176784000Y-100965000D03*
D24*
X179324000Y-100965000D03*
X178054000Y-100965000D03*
%TD*%
D20*
%TO.C,R501*%
X224723200Y-102940000D03*
D19*
X214563200Y-102940000D03*
%TD*%
D20*
%TO.C,R502*%
X224723200Y-98120568D03*
D19*
X214563200Y-98120568D03*
%TD*%
D20*
%TO.C,R503*%
X224723200Y-93301140D03*
D19*
X214563200Y-93301140D03*
%TD*%
D20*
%TO.C,R504*%
X224723200Y-88481712D03*
D19*
X214563200Y-88481712D03*
%TD*%
D20*
%TO.C,R505*%
X224723200Y-83662284D03*
D19*
X214563200Y-83662284D03*
%TD*%
D20*
%TO.C,R506*%
X214563200Y-74923428D03*
D19*
X224723200Y-74923428D03*
%TD*%
D20*
%TO.C,R507*%
X224723200Y-70104000D03*
D19*
X214563200Y-70104000D03*
%TD*%
D20*
%TO.C,R508*%
X172466000Y-106680000D03*
D19*
X162306000Y-106680000D03*
%TD*%
D20*
%TO.C,R509*%
X172466000Y-112268000D03*
D19*
X162306000Y-112268000D03*
%TD*%
D20*
%TO.C,R510*%
X172466000Y-95504000D03*
D19*
X162306000Y-95504000D03*
%TD*%
D20*
%TO.C,R511*%
X162306000Y-100838000D03*
D19*
X172466000Y-100838000D03*
%TD*%
%TO.C,C310*%
X89662000Y-153456000D03*
X89662000Y-155956000D03*
%TD*%
D40*
%TO.C,Q315*%
X187985400Y-140423900D03*
D41*
X187985400Y-137883900D03*
X187985400Y-139153900D03*
%TD*%
D19*
%TO.C,C325*%
X160223200Y-130606800D03*
X160223200Y-128106800D03*
%TD*%
%TO.C,C311*%
X89662000Y-148296000D03*
X89662000Y-145796000D03*
%TD*%
%TO.C,C326*%
X169748200Y-153494100D03*
X169748200Y-155994100D03*
%TD*%
%TO.C,C312*%
X92508700Y-139217400D03*
X95008700Y-139217400D03*
%TD*%
%TO.C,C327*%
X169748200Y-148372200D03*
X169748200Y-145872200D03*
%TD*%
%TO.C,C313*%
X96393000Y-130606800D03*
X96393000Y-128106800D03*
%TD*%
%TO.C,C328*%
X175221900Y-137426700D03*
X175221900Y-139926700D03*
%TD*%
%TO.C,C314*%
X111569500Y-153456000D03*
X111569500Y-155956000D03*
%TD*%
%TO.C,C329*%
X178117500Y-130606800D03*
X178117500Y-128106800D03*
%TD*%
%TO.C,C315*%
X111506000Y-148296000D03*
X111506000Y-145796000D03*
%TD*%
%TO.C,C330*%
X189382400Y-153557600D03*
X189382400Y-156057600D03*
%TD*%
%TO.C,C316*%
X115443000Y-128106800D03*
X115443000Y-130606800D03*
%TD*%
%TO.C,C331*%
X189395100Y-148384900D03*
X189395100Y-145884900D03*
%TD*%
%TO.C,C332*%
X197129400Y-128106800D03*
X197129400Y-130606800D03*
%TD*%
%TO.C,C318*%
X130898900Y-156006800D03*
X130898900Y-153506800D03*
%TD*%
%TO.C,C319*%
X130898900Y-148346800D03*
X130898900Y-145846800D03*
%TD*%
%TO.C,C333*%
X199275700Y-145721700D03*
X199275700Y-148221700D03*
%TD*%
%TO.C,C320*%
X137414000Y-134874000D03*
X137414000Y-132374000D03*
%TD*%
%TO.C,C334*%
X204950000Y-132950000D03*
X202450000Y-132950000D03*
%TD*%
%TO.C,C321*%
X137414000Y-127548000D03*
X137414000Y-130048000D03*
%TD*%
%TO.C,C322*%
X150126700Y-153583000D03*
X150126700Y-156083000D03*
%TD*%
%TO.C,C323*%
X150152100Y-148435700D03*
X150152100Y-145935700D03*
%TD*%
%TO.C,C324*%
X155067000Y-128106800D03*
X155067000Y-130606800D03*
%TD*%
%TO.C,C402*%
X220450000Y-138450000D03*
X220450000Y-140950000D03*
%TD*%
D46*
%TO.C,D201*%
X74931000Y-110625000D03*
D20*
X74931000Y-118245000D03*
%TD*%
D46*
%TO.C,D202*%
X79503000Y-118245000D03*
D20*
X79503000Y-110625000D03*
%TD*%
D46*
%TO.C,D203*%
X65787000Y-118245000D03*
D20*
X65787000Y-110625000D03*
%TD*%
D46*
%TO.C,D204*%
X70359000Y-110625000D03*
D20*
X70359000Y-118245000D03*
%TD*%
D40*
%TO.C,Q304*%
X80518000Y-140423900D03*
D41*
X80518000Y-137883900D03*
X80518000Y-139153900D03*
%TD*%
D40*
%TO.C,Q305*%
X87376000Y-140423900D03*
D41*
X87376000Y-137883900D03*
X87376000Y-139153900D03*
%TD*%
D40*
%TO.C,Q312*%
X163080700Y-140423900D03*
D41*
X163080700Y-137883900D03*
X163080700Y-139153900D03*
%TD*%
D40*
%TO.C,Q313*%
X169900600Y-140423900D03*
D41*
X169900600Y-137883900D03*
X169900600Y-139153900D03*
%TD*%
D40*
%TO.C,Q306*%
X102108000Y-140423900D03*
D41*
X102108000Y-137883900D03*
X102108000Y-139153900D03*
%TD*%
D40*
%TO.C,Q307*%
X109474000Y-140423900D03*
D41*
X109474000Y-137883900D03*
X109474000Y-139153900D03*
%TD*%
D40*
%TO.C,Q314*%
X181470300Y-140423900D03*
D41*
X181470300Y-137883900D03*
X181470300Y-139153900D03*
%TD*%
D40*
%TO.C,Q308*%
X126961900Y-140423900D03*
D41*
X126961900Y-137883900D03*
X126961900Y-139153900D03*
%TD*%
D40*
%TO.C,Q309*%
X134315200Y-140423900D03*
D41*
X134315200Y-137883900D03*
X134315200Y-139153900D03*
%TD*%
D23*
%TO.C,Q316*%
X204850000Y-139200000D03*
D24*
X202310000Y-139200000D03*
X203580000Y-139200000D03*
%TD*%
D40*
%TO.C,Q310*%
X142341600Y-140423900D03*
D41*
X142341600Y-137883900D03*
X142341600Y-139153900D03*
%TD*%
D40*
%TO.C,Q311*%
X148945600Y-140423900D03*
D41*
X148945600Y-137883900D03*
X148945600Y-139153900D03*
%TD*%
D20*
%TO.C,R311*%
X74155300Y-160058100D03*
D19*
X84315300Y-160058100D03*
%TD*%
D20*
%TO.C,R312*%
X79248000Y-155930600D03*
D19*
X79248000Y-145770600D03*
%TD*%
D20*
%TO.C,R313*%
X81572100Y-128550000D03*
D19*
X91732100Y-128550000D03*
%TD*%
D20*
%TO.C,R314*%
X84328000Y-155930600D03*
D19*
X84328000Y-145770600D03*
%TD*%
D20*
%TO.C,R335*%
X160020000Y-155930600D03*
D19*
X160020000Y-145770600D03*
%TD*%
D20*
%TO.C,R315*%
X91732100Y-133502400D03*
D19*
X81572100Y-133502400D03*
%TD*%
D20*
%TO.C,R336*%
X164680900Y-128550000D03*
D19*
X174840900Y-128550000D03*
%TD*%
D20*
%TO.C,R316*%
X94996000Y-155930600D03*
D19*
X94996000Y-145770600D03*
%TD*%
D20*
%TO.C,R337*%
X165061900Y-155930600D03*
D19*
X165061900Y-145770600D03*
%TD*%
D20*
%TO.C,R338*%
X154901900Y-160058100D03*
D19*
X165061900Y-160058100D03*
%TD*%
%TO.C,R317*%
X106172000Y-160058100D03*
D20*
X96012000Y-160058100D03*
%TD*%
%TO.C,R339*%
X174840900Y-133502400D03*
D19*
X164680900Y-133502400D03*
%TD*%
D20*
%TO.C,R318*%
X100584000Y-155930600D03*
D19*
X100584000Y-145770600D03*
%TD*%
D20*
%TO.C,R340*%
X174345600Y-155930600D03*
D19*
X174345600Y-145770600D03*
%TD*%
D20*
%TO.C,R319*%
X100812600Y-128550000D03*
D19*
X110972600Y-128550000D03*
%TD*%
D20*
%TO.C,R320*%
X106172000Y-155930600D03*
D19*
X106172000Y-145770600D03*
%TD*%
D20*
%TO.C,R341*%
X179616100Y-155930600D03*
D19*
X179616100Y-145770600D03*
%TD*%
D20*
%TO.C,R321*%
X110883700Y-133502400D03*
D19*
X100723700Y-133502400D03*
%TD*%
D20*
%TO.C,R342*%
X182689500Y-128550000D03*
D19*
X192849500Y-128550000D03*
%TD*%
D20*
%TO.C,R322*%
X116713000Y-155930600D03*
D19*
X116713000Y-145770600D03*
%TD*%
D20*
%TO.C,R343*%
X184708800Y-155930600D03*
D19*
X184708800Y-145770600D03*
%TD*%
D20*
%TO.C,R344*%
X174561500Y-160058100D03*
D19*
X184721500Y-160058100D03*
%TD*%
D20*
%TO.C,R345*%
X192824100Y-133502400D03*
D19*
X182664100Y-133502400D03*
%TD*%
D20*
%TO.C,R346*%
X194233800Y-155930600D03*
D19*
X194233800Y-145770600D03*
%TD*%
D20*
%TO.C,R323*%
X112141000Y-160058100D03*
D19*
X122301000Y-160058100D03*
%TD*%
D20*
%TO.C,R324*%
X121678700Y-155930600D03*
D19*
X121678700Y-145770600D03*
%TD*%
D20*
%TO.C,R326*%
X126365000Y-155930600D03*
D19*
X126365000Y-145770600D03*
%TD*%
D20*
%TO.C,R328*%
X135623300Y-155930600D03*
D19*
X135623300Y-145770600D03*
%TD*%
D20*
%TO.C,R347*%
X203784200Y-145770600D03*
D19*
X203784200Y-155930600D03*
%TD*%
D20*
%TO.C,R348*%
X208876900Y-155930600D03*
D19*
X208876900Y-145770600D03*
%TD*%
D20*
%TO.C,R349*%
X208900000Y-142710000D03*
D19*
X208900000Y-132550000D03*
%TD*%
D20*
%TO.C,R329*%
X140614400Y-155930600D03*
D19*
X140614400Y-145770600D03*
%TD*%
D20*
%TO.C,R350*%
X200340000Y-128550000D03*
D19*
X210500000Y-128550000D03*
%TD*%
D20*
%TO.C,R330*%
X140576300Y-128550000D03*
D19*
X150736300Y-128550000D03*
%TD*%
D20*
%TO.C,R331*%
X145529300Y-155930600D03*
D19*
X145529300Y-145770600D03*
%TD*%
D20*
%TO.C,R332*%
X135343900Y-160058100D03*
D19*
X145503900Y-160058100D03*
%TD*%
D20*
%TO.C,R333*%
X150774400Y-133502400D03*
D19*
X140614400Y-133502400D03*
%TD*%
D20*
%TO.C,R334*%
X154927300Y-155930600D03*
D19*
X154927300Y-145770600D03*
%TD*%
D20*
%TO.C,R401*%
X228300000Y-155930600D03*
D19*
X228300000Y-145770600D03*
%TD*%
D20*
%TO.C,R404*%
X214520300Y-155930600D03*
D19*
X214520300Y-145770600D03*
%TD*%
D42*
%TO.C,Y304*%
X155092400Y-141588500D03*
X155092400Y-139088500D03*
X155092400Y-136588500D03*
%TD*%
%TO.C,Y303*%
X115443000Y-141588500D03*
X115443000Y-139088500D03*
X115443000Y-136588500D03*
%TD*%
%TO.C,Y305*%
X196850000Y-141588500D03*
X196850000Y-139088500D03*
X196850000Y-136588500D03*
%TD*%
D19*
%TO.C,C401*%
X227263200Y-129457600D03*
X229763200Y-129457600D03*
%TD*%
%TO.C,C503*%
X210357600Y-112033200D03*
X207857600Y-112033200D03*
%TD*%
%TO.C,L503*%
X214309200Y-108578800D03*
D20*
X227009200Y-108578800D03*
%TD*%
M02*
