M48
; DRILL file {KiCad (5.1.6-0-10_14)} date Saturday, October 31, 2020 at 05:55:18 PM
; FORMAT={2:4/ absolute / inch / suppress leading zeros}
; #@! TF.CreationDate,2020-10-31T17:55:18+01:00
; #@! TF.GenerationSoftware,Kicad,Pcbnew,(5.1.6-0-10_14)
FMAT,2
INCH,TZ
T1C0.0157
T2C0.0217
T3C0.0295
T4C0.0315
T5C0.0354
T6C0.0394
T7C0.0433
T8C0.0472
T9C0.0512
T10C0.0591
T11C0.0669
T12C0.0433
T13C0.1378
%
G90
G05
T1
X16734Y-58388
X18406Y-30303
X18406Y-30697
X18406Y-31091
X18457Y-45685
X18457Y-46079
X18457Y-46472
X41494Y-32628
X41494Y-36628
X41494Y-40628
X41494Y-48628
X42494Y-26628
X42494Y-34628
X42494Y-38628
X42494Y-42608
X42494Y-46628
X42543Y-47591
X42571Y-29382
X42937Y-47591
X42965Y-29382
X43331Y-47591
X43358Y-29382
X43494Y-28628
X43494Y-32628
X43494Y-36628
X43494Y-40628
X43494Y-48628
X44494Y-26628
X44494Y-34628
X44494Y-38628
X44494Y-46628
X45494Y-36628
X45494Y-40628
X46494Y-38628
X46494Y-42628
X46494Y-46628
X47494Y-40628
X47494Y-44628
X47494Y-48628
X48494Y-26628
X48494Y-34628
X48494Y-42628
X48494Y-46628
X49494Y-36628
X49494Y-40628
X49494Y-44628
X49494Y-48628
X50494Y-26628
X50494Y-42628
X51494Y-28628
X51494Y-36628
X51494Y-40628
X51494Y-48628
X52494Y-26628
X53494Y-32628
X53494Y-40628
X53494Y-44628
X54494Y-34628
X54494Y-42628
X54494Y-46628
X55494Y-28628
X55494Y-32628
X55494Y-36628
X55494Y-40628
X55494Y-44628
X55494Y-48628
X56494Y-42628
X56494Y-46628
X57294Y-32428
X57494Y-40628
X57494Y-44628
X57494Y-48628
X58494Y-26628
X58494Y-42628
X58494Y-46628
X59294Y-32428
X59492Y-48620
X59494Y-40628
X59494Y-44628
X60494Y-42628
X60494Y-46628
X61294Y-32428
X61494Y-40628
X61494Y-44628
X62494Y-26628
X63494Y-36628
X63494Y-48228
X64494Y-30628
X64494Y-38628
X64494Y-42628
X65494Y-28628
X65494Y-32628
X65494Y-36628
X65494Y-40628
X65494Y-44628
X65494Y-48228
X66494Y-27028
X66494Y-34628
X66494Y-38628
X66494Y-42628
X66494Y-46228
X67494Y-32628
X67494Y-40628
X67494Y-48228
X68494Y-27028
X68494Y-34628
X68494Y-38628
X68494Y-42628
X68494Y-46228
X69494Y-28628
X69494Y-32628
X69494Y-36628
X69494Y-40628
X69494Y-44628
X69494Y-48228
X70494Y-27028
X70494Y-30628
X70494Y-34628
X70494Y-42628
X70494Y-46228
X71494Y-28628
X71494Y-32628
X71494Y-36628
X71494Y-40628
X71494Y-44628
X71494Y-48228
X72494Y-27028
X72494Y-30628
X72494Y-34628
X72494Y-38628
X72494Y-42628
X72494Y-46228
X73494Y-28628
X73494Y-32628
X73494Y-36628
X73494Y-48228
X74494Y-27028
X74494Y-30628
X74494Y-38628
X74494Y-42628
X75494Y-28628
X75494Y-48228
X76494Y-27028
X76494Y-30628
X76494Y-34628
X76494Y-38628
X76494Y-46228
X77494Y-28628
X77494Y-32628
X77494Y-36628
X77494Y-48228
X78494Y-27028
X78494Y-34628
X78494Y-38628
X78494Y-42628
X78494Y-46228
X78894Y-30328
X79294Y-30328
X79494Y-32628
X79494Y-36628
X79494Y-40628
X79494Y-44628
X79694Y-30328
X80494Y-27028
T2
X89469Y-53681
X89969Y-53681
X90469Y-53681
T3
X79650Y-54803
X80150Y-54803
X80650Y-54803
X53094Y-27988
X53594Y-27988
X54094Y-27988
X23880Y-54285
X23880Y-54785
X23880Y-55285
X53094Y-38661
X53594Y-38661
X54094Y-38661
X40200Y-54285
X40200Y-54785
X40200Y-55285
X84458Y-31218
X87458Y-31218
X81850Y-34600
X82350Y-34600
X82850Y-34600
X31700Y-54285
X31700Y-54785
X31700Y-55285
X56040Y-54285
X56040Y-54785
X56040Y-55285
X26435Y-54285
X26435Y-54785
X26435Y-55285
X43100Y-54285
X43100Y-54785
X43100Y-55285
X81850Y-41700
X82350Y-41700
X82850Y-41700
X81850Y-30400
X82350Y-30400
X82850Y-30400
X74010Y-54285
X74010Y-54785
X74010Y-55285
X34400Y-54285
X34400Y-54785
X34400Y-55285
X71445Y-54285
X71445Y-54785
X71445Y-55285
X58640Y-54285
X58640Y-54785
X58640Y-55285
X81850Y-27700
X82350Y-27700
X82850Y-27700
X64205Y-54285
X64205Y-54785
X64205Y-55285
X66890Y-54285
X66890Y-54785
X66890Y-55285
X18815Y-55570
X19315Y-55570
X19815Y-55570
X52880Y-54285
X52880Y-54785
X52880Y-55285
X81850Y-37600
X82350Y-37600
X82850Y-37600
X49985Y-54285
X49985Y-54785
X49985Y-55285
X69600Y-39750
X70100Y-39750
X70600Y-39750
T4
X29500Y-43553
X29500Y-46553
X35300Y-60416
X35300Y-61400
X84374Y-45324
X89374Y-45324
X20460Y-44443
X20750Y-46673
X22150Y-43463
X23550Y-46673
X23840Y-44443
X41800Y-57390
X41800Y-61390
X89882Y-57390
X89882Y-61390
X77750Y-40450
X78734Y-40450
X33490Y-44293
X33490Y-46213
X35150Y-43324
X35150Y-47182
X36810Y-44293
X36810Y-46213
X47905Y-57390
X47905Y-61390
X70125Y-50436
X70125Y-51420
X84474Y-40528
X88474Y-40528
X33200Y-57390
X33200Y-61390
X27335Y-60406
X27335Y-61390
X23135Y-50610
X27135Y-50610
X78455Y-57371
X78455Y-58355
X26055Y-37327
X27039Y-37327
X55360Y-57390
X55360Y-61390
X15620Y-57445
X15620Y-58429
X21195Y-55375
X22179Y-55375
X39650Y-45303
X39650Y-46303
X39650Y-47303
X60985Y-63015
X64985Y-63015
X63900Y-39700
X67900Y-39700
X28449Y-37327
X32449Y-37327
X30415Y-50436
X30415Y-51420
X27700Y-43553
X27700Y-46553
X39690Y-50610
X43690Y-50610
X60995Y-57390
X60995Y-61390
X54100Y-50216
X54100Y-51200
X66830Y-60431
X66830Y-61415
X59115Y-57455
X59115Y-58439
X66830Y-57430
X66830Y-58414
X44150Y-63015
X48150Y-63015
X89474Y-50968
X90458Y-50968
X86791Y-54508
X86791Y-55492
X32115Y-50610
X36115Y-50610
X25535Y-57390
X25535Y-61390
X72720Y-57390
X72720Y-61390
X84474Y-32938
X88474Y-32938
X82244Y-52185
X82244Y-56185
X28386Y-28520
X32386Y-28520
X77750Y-35650
X78734Y-35650
X64985Y-57390
X64985Y-61390
X63900Y-37600
X67900Y-37600
X43925Y-60416
X43925Y-61400
X68640Y-57390
X68640Y-61390
X55360Y-52560
X59360Y-52560
X85039Y-54508
X85039Y-55492
X81866Y-39400
X82850Y-39400
X77610Y-50436
X77610Y-51420
X51535Y-57420
X51535Y-58404
X76470Y-57390
X76470Y-61390
X23135Y-52560
X27135Y-52560
X31200Y-57390
X31200Y-61390
X45950Y-57390
X45950Y-61390
X34173Y-34039
X34173Y-35024
X84474Y-34835
X88474Y-34835
X89794Y-38463
X89794Y-39448
X82235Y-57390
X82235Y-61390
X37400Y-57390
X37400Y-61390
X68725Y-63015
X72725Y-63015
X59105Y-60466
X59105Y-61450
X63900Y-44200
X67900Y-44200
X36421Y-54810
X37405Y-54810
X61050Y-50436
X61050Y-51420
X17430Y-54916
X17430Y-55900
X81834Y-46100
X82818Y-46100
X39600Y-57390
X39600Y-61390
X53285Y-63015
X57285Y-63015
X28870Y-50436
X28870Y-51420
X81834Y-47900
X82818Y-47900
X37638Y-30453
X37638Y-33406
X37638Y-36358
X71915Y-52560
X75915Y-52560
X29335Y-57390
X29335Y-61390
X84374Y-47900
X89374Y-47900
X19615Y-57390
X19615Y-61390
X29195Y-63015
X33195Y-63015
X71925Y-50610
X75925Y-50610
X26303Y-29878
X27287Y-29878
X68985Y-54105
X68985Y-55089
X62134Y-33888
X62134Y-37888
X74560Y-60456
X74560Y-61440
X84474Y-36733
X88474Y-36733
X81834Y-44108
X82818Y-44108
X74565Y-57435
X74565Y-58419
X80230Y-57390
X80230Y-61390
X64835Y-50610
X68835Y-50610
X51830Y-45630
X51830Y-47770
X53970Y-45630
X53970Y-47770
X51535Y-60436
X51535Y-61420
X63900Y-42000
X67900Y-42000
X79705Y-52343
X80689Y-52343
X60604Y-33888
X60604Y-37888
X81866Y-32400
X82850Y-32400
X15650Y-54905
X15650Y-55889
X64835Y-52560
X68835Y-52560
X50157Y-32756
X51142Y-32756
X57295Y-57390
X57295Y-61390
X63080Y-50436
X63080Y-51420
X17715Y-57390
X17715Y-61390
X88012Y-57390
X88012Y-61390
X41594Y-30728
X41594Y-31712
X39655Y-52560
X43655Y-52560
X61094Y-48128
X62078Y-48128
X48435Y-50610
X52435Y-50610
X27335Y-57390
X27335Y-58374
X53395Y-57390
X53395Y-61390
X34349Y-39387
X35333Y-39387
X25900Y-43553
X25900Y-46553
X32115Y-52560
X36115Y-52560
X84474Y-27600
X88474Y-27600
X50394Y-35039
X50394Y-39039
X34329Y-37348
X35314Y-37348
X77750Y-45250
X78734Y-45250
X37800Y-63015
X41800Y-63015
X50394Y-27638
X50394Y-31638
X55345Y-50610
X59345Y-50610
X21360Y-50400
X21360Y-54400
X78600Y-60466
X78600Y-61450
X43900Y-57400
X43900Y-58384
X50118Y-33937
X51102Y-33937
X86220Y-57390
X86220Y-61390
X45450Y-50436
X45450Y-51420
X28409Y-29878
X32409Y-29878
X15640Y-52560
X19640Y-52560
X84374Y-42748
X89374Y-42748
X70715Y-57390
X70715Y-61390
X84457Y-57390
X84457Y-61390
X48445Y-52560
X52445Y-52560
X54100Y-52116
X54100Y-53100
X31300Y-43553
X31300Y-46553
X49750Y-57390
X49750Y-61390
X84474Y-38630
X88474Y-38630
X63000Y-57390
X63000Y-61390
X84474Y-29497
X88474Y-29497
X35300Y-57400
X35300Y-58384
X90674Y-29223
X90674Y-30208
X23635Y-57390
X23635Y-61390
X78874Y-50610
X82874Y-50610
X37950Y-50436
X37950Y-51420
X44294Y-48628
X45278Y-48628
X78316Y-31950
X79300Y-31950
X46665Y-50436
X46665Y-51420
X15620Y-50555
X19620Y-50555
X21211Y-57075
X22195Y-57075
T5
X58284Y-34598
X59284Y-34598
X58271Y-36912
X59271Y-36912
T6
X21660Y-59080
X21660Y-60064
X21660Y-61049
X61060Y-53775
X61060Y-54759
X61060Y-55744
X64400Y-34700
X67353Y-34700
X76531Y-28850
X78500Y-28850
X52598Y-31181
X54567Y-31181
X28705Y-53775
X28705Y-54759
X28705Y-55744
X52677Y-35433
X54646Y-35433
X77500Y-53775
X77500Y-54759
X77500Y-55744
X45450Y-53775
X45450Y-54759
X45450Y-55744
X64400Y-46900
X67353Y-46900
T7
X45643Y-27117
X46643Y-27117
X47643Y-27117
X48294Y-30228
X48294Y-33228
X46094Y-30228
X46094Y-33228
T8
X23264Y-29354
X23264Y-37354
T9
X58094Y-27728
X58291Y-30602
X59905Y-26192
X60889Y-28869
X61952Y-29342
X73981Y-35650
X75950Y-35650
X73981Y-40450
X75950Y-40450
X73981Y-45250
X75950Y-45250
T10
X67350Y-29350
X16354Y-37368
X44454Y-44408
X85433Y-51772
T11
X66350Y-28350
X66350Y-30350
X68350Y-28350
X68350Y-30350
X15354Y-36368
X15354Y-38368
X17354Y-36368
X17354Y-38368
X43454Y-43408
X43454Y-45408
X45454Y-43408
X45454Y-45408
X84433Y-50772
X84433Y-52772
X86433Y-50772
X86433Y-52772
T12
X45643Y-28117
X46643Y-28117
X47643Y-28117
T13
X15694Y-63028
X90794Y-63028
X90794Y-27028
X15694Y-27028
T0
M30
